# xmcd
#
# Track frame offsets:
#	150
#	20285
#	36835
#	58362
#	83322
#	100950
#	114792
#	127272
#	144765
#
# Disc length: 2168 seconds
#
# Revision: 1
# Processed by: cddbd v1.4PL0 Copyright (c) Steve Scherf et al.
# Submitted via: audiograbber 1.80.04
#
DISCID=6c087609
DTITLE=Coyotes - Coyotes
DYEAR=1996
DGENRE=Country
TTITLE0=Long Last Look
TTITLE1=Crossroad Sign
TTITLE2=You Play Too Rough
TTITLE3=Piece of String
TTITLE4=Glory Days
TTITLE5=Time After Time
TTITLE6=Fire in My Soul
TTITLE7=Final Farewell
TTITLE8=J'ai Besoin De Toi
EXTD=
EXTT0=
EXTT1=
EXTT2=
EXTT3=
EXTT4=
EXTT5=
EXTT6=
EXTT7=
EXTT8=
PLAYORDER=
